<svg width="358" height="358" viewBox="0 0 358 358" fill="none" xmlns="http://www.w3.org/2000/svg">
<g filter="url(#filter0_d_202_2)">
<path d="M296.202 67.0461C313.351 78.2017 336.439 73.6082 347.797 56.7655C359.156 39.9228 354.479 17.2474 337.33 6.09184C320.181 -5.06372 297.093 -0.470253 285.735 16.3724C277.494 28.6217 277.494 44.5163 285.735 56.7655L222.336 119.032C221.965 119.397 221.668 119.834 221.445 120.345C194.868 95.4819 152.775 96.5024 127.46 122.678C126.94 123.261 126.421 123.771 125.901 124.354L77.6466 97.3042C78.6119 94.1688 79.0574 91.034 79.1311 87.753C79.3538 67.4105 62.7248 50.6409 42.0124 50.4222C21.3001 50.2034 4.22492 66.5362 4.00221 86.8787C3.7795 107.221 20.4085 123.991 41.1209 124.209C52.702 124.355 63.7632 119.179 70.9645 110.283L117.214 136.24C103.183 161.103 107.118 192.018 127.014 212.725L80.244 258.514C76.4579 256.472 72.2263 255.378 67.9948 255.378C53.6666 255.378 42.0118 266.826 42.0118 280.897C42.0118 294.969 53.6673 306.416 67.9948 306.416C82.3222 306.416 93.9778 294.969 93.9778 280.897C93.9778 276.668 92.8642 272.512 90.7853 268.867L138.223 222.203C162.351 238.244 194.273 237.077 217.064 219.214L256.41 264.346C236.885 284.981 238.147 317.207 259.157 336.384C280.166 355.559 312.979 354.32 332.504 333.686C352.028 313.051 350.766 280.825 329.757 261.648C320.106 252.899 307.486 248.087 294.42 248.087C285.14 248.087 276.009 250.566 267.992 255.232L227.606 209.005C246.166 186.476 247.353 154.613 230.576 130.771C231.392 130.407 232.135 129.896 232.803 129.313L296.202 67.0461ZM316.692 14.7682C329.016 14.7682 338.963 24.5381 338.963 36.6418C338.963 48.7454 329.016 58.5154 316.692 58.5154C304.368 58.5154 294.421 48.7454 294.421 36.6418C294.421 24.5381 304.368 14.7682 316.692 14.7682ZM42.0118 109.554C29.688 109.554 19.7404 99.7841 19.7404 87.6805C19.7404 75.5769 29.688 65.8069 42.0118 65.8069C54.3355 65.8069 64.2831 75.5769 64.2831 87.6805C64.2831 99.7841 54.261 109.554 42.0118 109.554ZM67.9955 291.835C61.834 291.835 56.8598 286.949 56.8598 280.898C56.8598 274.846 61.834 269.961 67.9955 269.961C74.157 269.961 79.1311 274.846 79.1311 280.898C79.1311 286.949 74.0825 291.835 67.9955 291.835ZM294.421 262.67C314.91 262.67 331.539 279.002 331.539 299.125C331.465 319.249 314.91 335.509 294.421 335.581C273.931 335.581 257.302 319.249 257.302 299.125C257.302 279.002 273.931 262.67 294.421 262.67ZM175.64 218.922C146.91 218.922 123.673 196.101 123.673 167.884C123.673 139.667 146.91 116.845 175.64 116.845C204.37 116.845 227.607 139.667 227.607 167.884C227.532 196.028 204.296 218.849 175.64 218.922Z" fill="#386395"/>
</g>
<defs>
<filter id="filter0_d_202_2" x="0" y="0" width="358" height="358" filterUnits="userSpaceOnUse" color-interpolation-filters="sRGB">
<feFlood flood-opacity="0" result="BackgroundImageFix"/>
<feColorMatrix in="SourceAlpha" type="matrix" values="0 0 0 0 0 0 0 0 0 0 0 0 0 0 0 0 0 0 127 0" result="hardAlpha"/>
<feOffset dy="4"/>
<feGaussianBlur stdDeviation="2"/>
<feComposite in2="hardAlpha" operator="out"/>
<feColorMatrix type="matrix" values="0 0 0 0 0 0 0 0 0 0 0 0 0 0 0 0 0 0 0.25 0"/>
<feBlend mode="normal" in2="BackgroundImageFix" result="effect1_dropShadow_202_2"/>
<feBlend mode="normal" in="SourceGraphic" in2="effect1_dropShadow_202_2" result="shape"/>
</filter>
</defs>
</svg>
